<svg width="134" height="28" xmlns="http://www.w3.org/2000/svg" viewBox="0 0 134 28"><g transform="translate(-1)" fill-rule="nonzero" fill="none"><path d="M19.99 22.759L2.05 10.384C.232 9.13.85 6.519 3.117 5.905L22.184.73A2.7 2.7 0 0125.8 3.222l-1.13 17.549c-.134 2.083-2.862 3.242-4.68 1.988z" fill="#E9327C"/><path d="M14.3 25.814L3.731 5.145A2.883 2.883 0 016.738.984l19.587 3.023a2.883 2.883 0 012.127 4.162l-9.023 17.646a2.883 2.883 0 01-5.129-.001z" fill="#1DACE3"/><path d="M25.752 3.918l-9.764-1.507L4 5.666l4.785 9.361 11.205 7.732c.247.169.52.298.806.383l4.256-8.323.7-10.901zM75.209 6.334a1.835 1.835 0 111.835 1.835 1.854 1.854 0 01-1.835-1.835zm.306 2.732h3.059V19.26h-3.059V9.066zM91.784 14.163a5.119 5.119 0 01-4.872 5.383 3.829 3.829 0 01-3.038-1.244v5.036h-3.058V9.066h3.058v.958a3.829 3.829 0 013.038-1.243 5.118 5.118 0 014.872 5.382zm-3.058 0a2.427 2.427 0 10-2.426 2.488 2.327 2.327 0 002.426-2.488zM101.223 16.2c0 2.345-2.039 3.344-4.241 3.344a4.463 4.463 0 01-4.383-2.427l2.65-1.508c.222.759.945 1.26 1.733 1.2.734 0 1.1-.225 1.1-.632 0-1.122-5.015-.53-5.015-4.058 0-2.222 1.875-3.343 4-3.343a4.46 4.46 0 013.975 2.181l-2.609 1.407a1.481 1.481 0 00-1.366-.9c-.53 0-.856.2-.856.571-.003 1.17 5.012.395 5.012 4.165zM112.4 9.066V19.26h-3.058v-.96a3.489 3.489 0 01-2.916 1.244c-2.059 0-3.812-1.468-3.812-4.221V9.066h3.058v5.811a1.681 1.681 0 001.774 1.855c1.121 0 1.9-.652 1.9-2.1V9.066h3.054zM129.928 13v6.26h-3.058v-5.994c0-1.019-.49-1.672-1.468-1.672-1.02 0-1.59.714-1.59 1.917v5.749h-3.059v-5.994c0-1.019-.489-1.672-1.468-1.672-1.019 0-1.59.714-1.59 1.917v5.749h-3.058V9.066h3.063V10a3.129 3.129 0 012.732-1.223 3.034 3.034 0 012.671 1.345 3.359 3.359 0 012.957-1.345c2.34.004 3.868 1.675 3.868 4.223z" fill="#001A49"/><circle fill="#001A49" cx="132.519" cy="6.733" r="2.27"/><path d="M33.457 4.377h3.059V19.26h-3.059V4.377zm4.791 9.786a5.4 5.4 0 115.4 5.383 5.343 5.343 0 01-5.4-5.383zm7.748 0a2.345 2.345 0 10-2.345 2.406A2.287 2.287 0 0046 14.163h-.004zm15.249-5.1v9.685c0 3.425-2.671 4.872-5.382 4.872a5.212 5.212 0 01-4.832-2.467l2.609-1.509a2.331 2.331 0 002.325 1.285 2.032 2.032 0 002.3-2.181v-.938a3.622 3.622 0 01-2.977 1.325 5.181 5.181 0 010-10.357 3.622 3.622 0 012.977 1.325v-1.04h2.98zm-2.976 4.893a2.47 2.47 0 10-2.469 2.369 2.308 2.308 0 002.469-2.366v-.003zm4.708.2a5.4 5.4 0 115.4 5.383 5.343 5.343 0 01-5.4-5.376v-.007zm7.748 0a2.346 2.346 0 10-2.345 2.406 2.287 2.287 0 002.345-2.399v-.007z" fill="#001A49"/></g></svg>